#!OML:ASF F:\VICON\USERDATA\INSTALL\rory3\rory3.ASF
:FULLY-SPECIFIED
:DEGREES
18
root 0.8532004851664948 17.721810865597064 -15.393888733391885 0.611318228364004 -7.219714559831139 -8.965483115561316
lfemur -25.773688404318193 -5.691877569559535 -7.0847585760828675
ltibia 12.62381090014101
lfoot -6.5069391282491615 13.109880263319392
ltoes -0.4674924894354069
rfemur 11.39938423115451 8.370175921248752 35.48568539493013
rtibia 23.550307546584044
rfoot -17.98828973631688 -5.057512393035441
rtoes -6.620394103688266
lowerback 8.691004974505265 2.9330266160645384 9.205021839660079
upperback -0.2961010962253717 4.95995518709312 2.346412991735665
thorax -4.627068063893846 2.2524457284336696 -3.28537289908305
lowerneck -16.812697477122132 -2.8426115795334472 -1.2787701966704126
upperneck 21.771091012831672 -3.6821302757348358 0.25725346030489626
head 9.702821477831352 -1.7836801369709954 -0.18316457836539876
lclavicle -1.9532406450981726e-15 9.067692723530627e-16
lhumerus -38.738586601774266 6.998757908063223 81.50190918757808
lradius 21.815007350813346
lwrist 2.181877858017033
lhand -26.959001191496252 19.654510470509692
lfingers 7.12502
lthumb -0.3804511870336866 49.633910361194204
rclavicle -1.9532406450981726e-15 9.067692723530627e-16
rhumerus -21.923517371658598 -8.06256624847206 -82.9950867742963
rradius 29.725085257422307
rwrist 1.1132423606602018
rhand -18.355892863989816 25.061889215076977
rfingers 7.12502
rthumb 7.926847146354429 -4.769470633268893
19
root 0.9375104558386229 17.81860543891849 -14.527988626046733 0.022008355980806193 -7.234754475630092 -7.496886901058314
lfemur -24.746089215547553 -3.719455198102091 -10.409513341748289
ltibia 15.30130877322166
lfoot 0.23016680166390024 5.892660333826589
ltoes -1.7083827079959812
rfemur 12.90218248024053 7.801058223463533 33.32958872192012
rtibia 26.202905809557773
rfoot -14.400793910306879 -2.7755366056489796
rtoes -10.656977594749232
lowerback 8.540246829799294 2.9138266461730233 7.867065018579174
upperback -0.20208062618759076 4.766206011775012 2.1079354099527277
thorax -4.547449877913833 2.193726203212331 -2.7670449077108734
lowerneck -16.94959562521856 -2.854351169485531 -1.4385578136960187
upperneck 22.05608757555889 -3.6150117123089087 0.09139804424957265
head 9.828907520120653 -1.7837401337014243 -0.21042469538089728
lclavicle -1.953240668309855e-15 9.067691698370575e-16
lhumerus -39.17258531741338 8.868084440712636 80.74981353868068
lradius 20.294110380804455
lwrist 1.1092113876138066
lhand -27.20779988398527 18.486013423628464
lfingers 7.12502
lthumb -0.6207718830625032 48.46481334551369
rclavicle -1.953240668309855e-15 9.067691698370575e-16
rhumerus -22.88961476027386 -9.356964423858006 -82.56978811802216
rradius 29.250086659379477
rwrist 1.5441812160578747
rhand -19.79068056811943 23.016497396537524
rfingers 7.12502
rthumb 6.541909541516062 -6.862472288995693
20
root 0.9908761948404838 17.91849983086025 -13.649488055302706 -1.0373296405705286 -5.646659136068106 -4.494634179781096
lfemur -22.27719022537538 -3.7424851139631716 -14.944307183298314
ltibia 16.290208691643464
lfoot 3.032019168241658 0.12930670301911695
ltoes -3.0354206907448145
rfemur 11.89078400925824 6.226153805524597 29.764293886773675
rtibia 32.99190207763438
rfoot -7.956000361774434 -1.7821085846743205
rtoes -9.703399654319972
lowerback 8.386508755661877 2.632318416270415 4.8094418349672425
upperback -0.310184706090004 4.050038748753855 1.3735428286903804
thorax -4.7938942592088205 1.8981187320546602 -1.7586790126801324
lowerneck -16.252005056453207 -3.0290950393980447 -1.45551756289873
upperneck 22.235285481081835 -3.8949857156685948 0.19302229797895087
head 9.766519466495149 -1.905843339760116 -0.19979702781138578
lclavicle -1.953240616762468e-15 9.06769238669254e-16
lhumerus -39.31988574158561 10.017582226890731 79.69281944954392
lradius 18.12041514564464
lwrist -0.6389308688476385
lhand -27.03950076852578 18.00751482884036
lfingers 7.12502
lthumb -0.45825576913038296 47.98681473835517
rclavicle -1.953240616762468e-15 9.06769238669254e-16
rhumerus -24.53371021897866 -12.342309478015604 -81.76359100815813
rradius 27.669691443260916
rwrist 2.5871189760503137
rhand -20.067978094997287 22.673998759517747
rfingers 7.12502
rthumb 6.274181882942772 -7.21312090728632
21
root 1.0560894039993054 18.012385355857138 -11.890410717368065 -1.5332561022698212 -4.185928536688796 -3.5846795095926347
lfemur -19.785959673073563 -1.6489156528013558 -17.553937786190886
ltibia 22.00143884769438
lfoot 2.0795049026336736 -3.113621961613096
ltoes 0.8297567012988556
rfemur 8.821431051554534 3.8803813935269056 27.7542513207895
rtibia 41.02006469814888
rfoot 3.162037232599584 -0.6291865997039006
rtoes -4.769857111251765
lowerback 8.710170535093802 2.2760491643728984 4.261473240216023
upperback -0.3154987766816954 3.5784262727198866 1.2899140021848083
thorax -4.74858698275426 1.7001089010383388 -1.7383632728900396
lowerneck -16.126789515764486 -3.0996679016362423 -1.576397999270462
upperneck 21.86031829393695 -4.024517035335836 0.46885572179970325
head 9.666750435075112 -1.9345420309449843 -0.09544019507046031
lclavicle -1.954036509862708e-15 9.060362978839196e-16
lhumerus -39.63248599952509 9.934350841041303 79.71049583691565
lradius 17.912816098241684
lwrist -3.110501380934319
lhand -24.858997067303232 24.21842056451996
lfingers 7.12502
lthumb 1.6817058514119265 54.876373067799136
rclavicle -1.95336680457642e-15 9.076386620056898e-16
rhumerus -25.743916862073235 -14.588290643906467 -81.25218702036943
rradius 27.019356007304367
rwrist 4.115737956029285
rhand -17.920197657270748 22.170605156691305
rfingers 7.12502
rthumb 8.280325724912684 -7.718939300880177
22
root 1.1204513540808565 18.118392057487675 -10.795236731830341 -1.9658980392681586 -3.8880392063460762 -1.698166563568092
lfemur -16.097767315885566 -1.0371051120808799 -20.357092253333853
ltibia 22.967223471636323
lfoot 1.3936217698439197 -3.550826255132156
ltoes 2.7336115264821834
rfemur 3.2467904889148045 2.557020083182729 24.865334104219677
rtibia 50.85627564420509
rfoot 13.056177391426662 -2.8542236578022666
rtoes 6.359873556735744
lowerback 9.246505274537897 2.1712382270767554 2.4419720594537395
upperback -0.1983829069414484 3.234669367397577 0.8854668467603227
thorax -4.956148363396468 1.589140879911471 -1.266140920698541
lowerneck -15.877302111975396 -3.1199505036824746 -1.5161251116529453
upperneck 21.696072327042934 -4.06195309489855 0.4612376962690727
head 9.582208425880307 -1.950704513528584 -0.08615612988025581
lclavicle -1.953090073527022e-15 9.069087394497421e-16
lhumerus -39.23745669566246 8.744825145205779 80.45390582281735
lradius 19.071589450849924
lwrist -0.9480011174803309
lhand -24.989851678299754 24.88835224491059
lfingers 7.12502
lthumb 1.5834791023919166 55.02775725862041
rclavicle -1.951914913923755e-15 9.091945319018867e-16
rhumerus -26.68843305779302 -15.824769624719302 -81.03017719304724
rradius 26.26974240219971
rwrist 5.034798771209532
rhand -17.287218186419175 21.68650991394951
rfingers 7.12502
rthumb 8.784921058159536 -8.378447755835996
23
root 1.1611320722207683 18.18360883872605 -9.443337472471766 -2.173346551914906 -3.782186723400307 0.23037748381187484
lfemur -12.760859474293754 -0.7850099199891933 -22.88199372593062
ltibia 23.073998675414828
lfoot -0.6426021950124472 -2.0889954283466263
ltoes 1.8681593086785946
rfemur -3.3855168859145977 1.2611688450192444 22.111754622734736
rtibia 60.72706183777182
rfoot 12.260970430002576 -9.110826764977734
rtoes 9.149876430539923
lowerback 9.673685606489835 1.9180351657855832 0.4256275082249893
upperback 0.03909400944514613 2.728784171506301 0.5298242811593512
thorax -4.892571464311902 1.412264486877774 -0.5240835066134216
lowerneck -15.928643548077241 -3.0470342286786942 -1.4926002018983664
upperneck 21.82648281673557 -3.9697686408909183 0.39495480421442536
head 9.612901686502713 -1.9110812005808488 -0.08897093932825076
lclavicle -1.9534424226276977e-15 9.065833084720198e-16
lhumerus -37.832390466352706 6.717533143420879 81.56723316235538
lradius 20.11126576248369
lwrist 1.0663165808234405
lhand -25.106170527376793 25.669187805463448
lfingers 7.12502
lthumb 1.5631285245630389 55.91267681826108
rclavicle -1.9540741378026503e-15 9.072259167533606e-16
rhumerus -27.288873596427017 -16.691552359275008 -80.95258981024641
rradius 25.158992973811056
rwrist 5.695413483994906
rhand -17.07146098672926 20.968071017229285
rfingers 7.12502
rthumb 9.016845666723306 -9.04987200866132
24
root 1.1697575051940217 18.186558310232268 -8.31478212049043 -2.4212860131700333 -3.129030549923155 0.7382620401834266
lfemur -10.056337336996991 -0.4736788772794316 -23.5955372073116
ltibia 23.621312092024713
lfoot -3.9631773119046114 -0.861243952806094
ltoes 1.664144415516453
rfemur -9.606852109949617 -0.22915566025623235 21.334976694323736
rtibia 68.25910362986362
rfoot 4.901786052761382 -12.062447205136964
rtoes 8.566163069207922
lowerback 10.039317232254135 1.3979405839996222 -0.2996197375575238
upperback 0.22251752919347814 1.900854369026535 0.636315567280108
thorax -5.052982002987347 1.0011757423401852 0.12751579366596322
lowerneck -15.929127373100027 -2.929445373870682 -1.4806631949943836
upperneck 21.876933910428168 -3.768966365583148 0.1712985681746364
head 9.621712851401426 -1.8443686740958412 -0.12240726263460636
lclavicle -1.9521500545207398e-15 9.07772732600688e-16
lhumerus -36.44006523268038 4.99377274214242 82.416263705239
lradius 20.8856428785299
lwrist 3.874979705372098
lhand -26.993706251228023 22.25872050516169
lfingers 7.12502
lthumb -0.22653877973809589 52.65938859036212
rclavicle -1.9522835295245717e-15 9.092108902720806e-16
rhumerus -27.8042057452522 -17.831177353695068 -80.78189379357816
rradius 24.102776145351026
rwrist 7.24886850736202
rhand -16.89006156316939 21.357223817305627
rfingers 7.12502
rthumb 9.325065353652604 -8.465429780217722
